<svg width="69" height="60" viewBox="0 0 69 60" fill="none" xmlns="http://www.w3.org/2000/svg">
<path d="M26.5781 46.2969C26.2656 46.7344 25.9062 47.0625 25.5 47.2812C25.0938 47.5312 24.7031 47.7031 24.3281 47.7969C23.8906 47.9219 23.4219 47.9688 22.9219 47.9375C22.7344 47.9375 22.5312 47.8906 22.3125 47.7969C22.125 47.7344 21.9219 47.6406 21.7031 47.5156C21.4844 47.4219 21.2969 47.2656 21.1406 47.0469C20.7031 45.4844 20.3125 43.9688 19.9688 42.5C19.625 41.0312 19.3281 39.7188 19.0781 38.5625C18.7656 37.2188 18.5 35.9531 18.2812 34.7656C17.4375 34.7344 16.1719 34.7344 14.4844 34.7656C12.8281 34.7656 11.0312 34.8594 9.09375 35.0469C8.5 36.9219 8.03125 38.5 7.6875 39.7812C7.34375 41.0625 7.09375 42.125 6.9375 42.9688C6.78125 43.8125 6.71875 44.5 6.75 45.0312C6.78125 45.5938 6.875 46.0781 7.03125 46.4844C6.59375 46.9219 6.15625 47.2344 5.71875 47.4219C5.3125 47.6406 4.9375 47.7812 4.59375 47.8438C4.1875 47.9375 3.79688 47.9688 3.42188 47.9375C2.92188 47.875 2.51562 47.7812 2.20312 47.6562C1.89062 47.5625 1.65625 47.3906 1.5 47.1406C1.375 46.9219 1.32812 46.5938 1.35938 46.1562C1.42188 45.7188 1.54688 45.1406 1.73438 44.4219C1.92188 43.7969 2.26562 42.6875 2.76562 41.0938C3.29688 39.4688 3.89062 37.625 4.54688 35.5625C3.35938 35.6562 2.4375 35.5938 1.78125 35.375C1.15625 35.1562 0.71875 34.5625 0.46875 33.5938C0.96875 33.4375 1.5 33.2969 2.0625 33.1719C2.65625 33.0156 3.21875 32.875 3.75 32.75C4.34375 32.625 4.95312 32.5156 5.57812 32.4219C6.23438 30.3594 6.90625 28.3281 7.59375 26.3281C8.28125 24.3281 8.92188 22.5312 9.51562 20.9375L12.2344 13.6719C12.2969 13.4844 12.625 13.2812 13.2188 13.0625C13.8125 12.8438 14.4688 12.6719 15.1875 12.5469C15.9062 12.3906 16.5938 12.3125 17.25 12.3125C17.9062 12.3125 18.3281 12.4531 18.5156 12.7344C18.6094 13.3906 18.7344 14.2031 18.8906 15.1719C19.0781 16.1406 19.25 17.0781 19.4062 17.9844C19.5938 19.0469 19.8125 20.1406 20.0625 21.2656C20.3438 22.8281 20.6406 24.5625 20.9531 26.4688C21.2969 28.375 21.7188 30.4062 22.2188 32.5625C22.7188 34.7188 23.3125 36.9531 24 39.2656C24.6875 41.5781 25.5469 43.9219 26.5781 46.2969ZM13.5469 31.625C14.5469 31.5938 15.375 31.5781 16.0312 31.5781C16.6875 31.5781 17.25 31.5938 17.7188 31.625L17.5781 30.9219C17.3906 29.7656 17.1875 28.5312 16.9688 27.2188C16.7812 25.9062 16.5781 24.6094 16.3594 23.3281C16.1719 22.0469 15.9844 20.8281 15.7969 19.6719C15.6094 18.5156 15.4531 17.5 15.3281 16.625C15.0156 17.4375 14.6562 18.4219 14.25 19.5781C13.8438 20.7031 13.4062 21.9375 12.9375 23.2812C12.4688 24.625 11.9844 26.0312 11.4844 27.5C11.0156 28.9688 10.5469 30.4219 10.0781 31.8594C10.6406 31.7969 11.2031 31.75 11.7656 31.7188C12.3281 31.6875 12.9219 31.6562 13.5469 31.625Z" fill="#4D17E2"/>
<path d="M28.5405 44V31.4H31.0125V33.992L30.5805 34.28C30.7405 33.72 31.0525 33.208 31.5165 32.744C31.9805 32.264 32.5325 31.88 33.1725 31.592C33.8125 31.288 34.4685 31.136 35.1405 31.136C36.1005 31.136 36.9005 31.328 37.5405 31.712C38.1805 32.08 38.6605 32.648 38.9805 33.416C39.3005 34.184 39.4605 35.152 39.4605 36.32V44H36.9885V36.488C36.9885 35.768 36.8925 35.176 36.7005 34.712C36.5085 34.232 36.2125 33.888 35.8125 33.68C35.4125 33.456 34.9165 33.36 34.3245 33.392C33.8445 33.392 33.4045 33.472 33.0045 33.632C32.6045 33.776 32.2525 33.984 31.9485 34.256C31.6605 34.528 31.4285 34.848 31.2525 35.216C31.0925 35.568 31.0125 35.952 31.0125 36.368V44H29.7885C29.5805 44 29.3725 44 29.1645 44C28.9565 44 28.7485 44 28.5405 44ZM48.0699 44.24C46.9179 44.24 45.8859 43.96 44.9739 43.4C44.0779 42.824 43.3659 42.048 42.8379 41.072C42.3099 40.08 42.0459 38.952 42.0459 37.688C42.0459 36.424 42.3019 35.304 42.8139 34.328C43.3419 33.336 44.0539 32.56 44.9499 32C45.8459 31.424 46.8619 31.136 47.9979 31.136C48.6219 31.136 49.2219 31.24 49.7979 31.448C50.3899 31.64 50.9179 31.912 51.3819 32.264C51.8459 32.6 52.2059 32.976 52.4619 33.392C52.7339 33.792 52.8699 34.2 52.8699 34.616L52.1499 34.664V26.24H54.6219V44H52.1499V41H52.6299C52.6299 41.384 52.5019 41.768 52.2459 42.152C51.9899 42.52 51.6459 42.864 51.2139 43.184C50.7979 43.504 50.3099 43.76 49.7499 43.952C49.2059 44.144 48.6459 44.24 48.0699 44.24ZM48.4059 42.104C49.1579 42.104 49.8219 41.912 50.3979 41.528C50.9739 41.144 51.4219 40.624 51.7419 39.968C52.0779 39.296 52.2459 38.536 52.2459 37.688C52.2459 36.84 52.0779 36.088 51.7419 35.432C51.4219 34.76 50.9739 34.232 50.3979 33.848C49.8219 33.464 49.1579 33.272 48.4059 33.272C47.6539 33.272 46.9899 33.464 46.4139 33.848C45.8379 34.232 45.3819 34.76 45.0459 35.432C44.7259 36.088 44.5659 36.84 44.5659 37.688C44.5659 38.536 44.7259 39.296 45.0459 39.968C45.3819 40.624 45.8379 41.144 46.4139 41.528C46.9899 41.912 47.6539 42.104 48.4059 42.104ZM58.4329 44V31.4H60.9049V44H58.4329ZM59.6329 28.616C59.1049 28.616 58.6969 28.48 58.4089 28.208C58.1209 27.936 57.9769 27.552 57.9769 27.056C57.9769 26.592 58.1209 26.216 58.4089 25.928C58.7129 25.64 59.1209 25.496 59.6329 25.496C60.1609 25.496 60.5689 25.632 60.8569 25.904C61.1449 26.176 61.2889 26.56 61.2889 27.056C61.2889 27.52 61.1369 27.896 60.8329 28.184C60.5449 28.472 60.1449 28.616 59.6329 28.616ZM65.7126 44.264C65.1846 44.264 64.7766 44.112 64.4886 43.808C64.2006 43.488 64.0566 43.04 64.0566 42.464C64.0566 41.936 64.2086 41.504 64.5126 41.168C64.8166 40.832 65.2166 40.664 65.7126 40.664C66.2406 40.664 66.6486 40.824 66.9366 41.144C67.2246 41.448 67.3686 41.888 67.3686 42.464C67.3686 42.992 67.2166 43.424 66.9126 43.76C66.6086 44.096 66.2086 44.264 65.7126 44.264Z" fill="black"/>
</svg>
